HIERARCHY
ROOT hip
{
  OFFSET 0 0 0
  CHANNELS 6 Xposition Yposition Zposition Zrotation Yrotation Xrotation
  JOINT abdomen
  {
    OFFSET 0 20.6881 -0.73152
    CHANNELS 3 Zrotation Xrotation Yrotation
    JOINT chest
    {
      OFFSET 0 11.7043 -0.48768
      CHANNELS 3 Zrotation Xrotation Yrotation
      JOINT neck
      {
        OFFSET 0 22.1894 -2.19456
        CHANNELS 3 Zrotation Xrotation Yrotation
        JOINT head
        {
          OFFSET -0.24384 7.07133 1.2192
          CHANNELS 3 Zrotation Xrotation Yrotation
          JOINT leftEye
          {
            OFFSET 4.14528 8.04674 8.04672
            CHANNELS 3 Zrotation Xrotation Yrotation
            End Site
            {
              OFFSET 1 0 0
            }
          }
          JOINT rightEye
          {
            OFFSET -3.6576 8.04674 8.04672
            CHANNELS 3 Zrotation Xrotation Yrotation
            End Site
            {
              OFFSET 1 0 0
            }
          }
        }
      }
      JOINT rCollar
      {
        OFFSET -2.68224 19.2634 -4.8768
        CHANNELS 3 Zrotation Xrotation Yrotation
        JOINT rShldr
        {
          OFFSET -8.77824 -1.95073 1.46304
          CHANNELS 3 Zrotation Xrotation Yrotation
          JOINT rForeArm
          {
            OFFSET -28.1742 -1.7115 0.48768
            CHANNELS 3 Zrotation Xrotation Yrotation
            JOINT rHand
            {
              OFFSET -22.5879 0.773209 7.07136
              CHANNELS 3 Zrotation Xrotation Yrotation
              JOINT rThumb1
              {
                OFFSET -1.2192 -0.487915 3.41376
                CHANNELS 3 Zrotation Xrotation Yrotation
                JOINT rThumb2
                {
                  OFFSET -3.37035 -0.52449 3.41376
                  CHANNELS 3 Zrotation Xrotation Yrotation
                  End Site
                  {
                    OFFSET -1.78271 -1.18214 1.43049
                  }
                }
              }
              JOINT rIndex1
              {
                OFFSET -7.75947 0.938293 5.60832
                CHANNELS 3 Zrotation Xrotation Yrotation
                JOINT rIndex2
                {
                  OFFSET -2.54057 -0.884171 1.56538
                  CHANNELS 3 Zrotation Xrotation Yrotation
                  End Site
                  {
                    OFFSET -1.62519 -0.234802 1.16502
                  }
                }
              }
              JOINT rMid1
              {
                OFFSET -8.24714 1.18213 3.41376
                CHANNELS 3 Zrotation Xrotation Yrotation
                JOINT rMid2
                {
                  OFFSET -3.10165 -0.590103 1.0647
                  CHANNELS 3 Zrotation Xrotation Yrotation
                  End Site
                  {
                    OFFSET -2.48547 -0.328903 0.83742
                  }
                }
              }
              JOINT rRing1
              {
                OFFSET -8.82822 0.546677 1.51678
                CHANNELS 3 Zrotation Xrotation Yrotation
                JOINT rRing2
                {
                  OFFSET -2.60934 -0.819778 -0.0198488
                  CHANNELS 3 Zrotation Xrotation Yrotation
                  End Site
                  {
                    OFFSET -2.33842 -0.294052 0.168128
                  }
                }
              }
              JOINT rPinky1
              {
                OFFSET -8.27202 -0.0477905 -0.4584
                CHANNELS 3 Zrotation Xrotation Yrotation
                JOINT rPinky2
                {
                  OFFSET -1.82734 -0.647385 -0.700984
                  CHANNELS 3 Zrotation Xrotation Yrotation
                  End Site
                  {
                    OFFSET -1.69225 -0.51767 -0.607171
                  }
                }
              }
            }
          }
        }
      }
      JOINT lCollar
      {
        OFFSET 2.68224 19.2634 -4.8768
        CHANNELS 3 Zrotation Xrotation Yrotation
        JOINT lShldr
        {
          OFFSET 8.77824 -1.95073 1.46304
          CHANNELS 3 Zrotation Xrotation Yrotation
          JOINT lForeArm
          {
            OFFSET 28.1742 -1.7115 0.48768
            CHANNELS 3 Zrotation Xrotation Yrotation
            JOINT lHand
            {
              OFFSET 22.5879 0.773209 7.07136
              CHANNELS 3 Zrotation Xrotation Yrotation
              JOINT lThumb1
              {
                OFFSET 1.2192 -0.487915 3.41376
                CHANNELS 3 Zrotation Xrotation Yrotation
                JOINT lThumb2
                {
                  OFFSET 3.37035 -0.52449 3.41376
                  CHANNELS 3 Zrotation Xrotation Yrotation
                  End Site
                  {
                    OFFSET 1.78271 -1.18214 1.43049
                  }
                }
              }
              JOINT lIndex1
              {
                OFFSET 7.75947 0.938293 5.60832
                CHANNELS 3 Zrotation Xrotation Yrotation
                JOINT lIndex2
                {
                  OFFSET 2.54057 -0.884171 1.56538
                  CHANNELS 3 Zrotation Xrotation Yrotation
                  End Site
                  {
                    OFFSET 1.62519 -0.234802 1.16502
                  }
                }
              }
              JOINT lMid1
              {
                OFFSET 8.24714 1.18213 3.41376
                CHANNELS 3 Zrotation Xrotation Yrotation
                JOINT lMid2
                {
                  OFFSET 3.10165 -0.590103 1.0647
                  CHANNELS 3 Zrotation Xrotation Yrotation
                  End Site
                  {
                    OFFSET 2.48547 -0.328903 0.83742
                  }
                }
              }
              JOINT lRing1
              {
                OFFSET 8.82822 0.546677 1.51678
                CHANNELS 3 Zrotation Xrotation Yrotation
                JOINT lRing2
                {
                  OFFSET 2.60934 -0.819778 -0.0198488
                  CHANNELS 3 Zrotation Xrotation Yrotation
                  End Site
                  {
                    OFFSET 2.33842 -0.294052 0.168128
                  }
                }
              }
              JOINT lPinky1
              {
                OFFSET 8.27202 -0.0477905 -0.4584
                CHANNELS 3 Zrotation Xrotation Yrotation
                JOINT lPinky2
                {
                  OFFSET 1.82734 -0.647385 -0.700984
                  CHANNELS 3 Zrotation Xrotation Yrotation
                  End Site
                  {
                    OFFSET 1.69225 -0.51767 -0.607171
                  }
                }
              }
            }
          }
        }
      }
    }
  }
  JOINT rButtock
  {
    OFFSET -8.77824 4.35084 1.2192
    CHANNELS 3 Zrotation Xrotation Yrotation
    JOINT rThigh
    {
      OFFSET 0 -1.70687 -2.19456
      CHANNELS 3 Zrotation Xrotation Yrotation
      JOINT rShin
      {
        OFFSET 0 -36.8199 0.73152
        CHANNELS 3 Zrotation Xrotation Yrotation
        JOINT rFoot
        {
          OFFSET 0.73152 -45.1104 -5.12064
          CHANNELS 3 Zrotation Xrotation Yrotation
          End Site
          {
            OFFSET -1.1221 -3.69964 12.103
          }
        }
      }
    }
  }
  JOINT lButtock
  {
    OFFSET 8.77824 4.35084 1.2192
    CHANNELS 3 Zrotation Xrotation Yrotation
    JOINT lThigh
    {
      OFFSET 0 -1.70687 -2.19456
      CHANNELS 3 Zrotation Xrotation Yrotation
      JOINT lShin
      {
        OFFSET 0 -36.8199 0.73152
        CHANNELS 3 Zrotation Xrotation Yrotation
        JOINT lFoot
        {
          OFFSET -0.73152 -45.1104 -5.12064
          CHANNELS 3 Zrotation Xrotation Yrotation
          End Site
          {
            OFFSET 1.1221 -3.69964 12.103
          }
        }
      }
    }
  }
}
MOTION
Frames:	7
Frame Time:	0.00833333
152.675 75.6141 -4.93578 515.971 78.7107 513.313 -4.28837 14.6234 -7.74871 6.52422 -0.678175 -1.95138 5.68006 -9.45933 2.20378 -4.20699 0.51579 1.99045 -0.0 0.0 0.0 -0.0 0.0 0.0 1.93227e-13 8.67144e-13 1.63997e-14 64.3722 32.4855 -35.1434 -22.1138 -15.9293 44.0984 -0.0931353 -8.67211 -1.22827 -9.62754e-10 -1.2709e-09 2.84523e-10 -1.66467e-09 -2.19892e-09 4.92344e-10 -9.62758e-10 -1.27089e-09 2.84507e-10 7.73091 5.47488 0.417314 -9.62758e-10 -1.27089e-09 2.8452e-10 2.90554 0.965183 0.102902 -9.62747e-10 -1.27089e-09 2.8452e-10 10.2786 0.731801 0.0259123 -9.62756e-10 -1.2709e-09 2.84526e-10 2.22167 -0.733487 -0.20892 1.93223e-13 8.67153e-13 1.63997e-14 -27.0387 49.579 -40.7772 28.3986 -37.0416 -78.7663 0.327521 -16.0685 2.32005 -1.48077e-10 -2.44089e-09 2.46324e-09 -2.83502e-10 -4.23651e-09 4.25364e-09 -1.48077e-10 -2.4409e-09 2.46325e-09 -7.73091 5.47488 -0.417314 -1.48078e-10 -2.4409e-09 2.46323e-09 -2.90554 0.965183 -0.102902 -1.48078e-10 -2.4409e-09 2.46324e-09 -10.2786 0.731801 -0.0259123 -1.4807e-10 -2.4409e-09 2.46323e-09 -2.22167 -0.733487 0.20892 -2.03217e-16 0.0 -3.88251e-19 -17.2677 -40.1241 -12.0539 -0.506917 41.8856 -0.109656 -0.833012 -2.99052 -5.44274 2.03217e-16 0.0 3.88251e-19 3.24446 23.1741 -5.1325 0.33922 39.4686 -0.679526 0.330557 3.1535 -2.30453
154.475 76.0643 -4.46719 524.028 79.5652 520.554 -2.14051 15.3083 -7.53911 6.08349 -0.889171 -1.78875 5.70138 -9.32544 2.11904 -3.93928 0.313864 1.81888 -0.0 0.0 0.0 -0.0 0.0 0.0 2.29682e-13 -6.03995e-13 6.80651e-14 62.6202 28.17 -30.9788 -21.3693 -14.866 42.0354 -0.0105013 -5.49287 -0.773358 -6.15975e-10 -4.06513e-10 -1.03091e-11 -1.06224e-09 -7.02477e-10 -1.62559e-11 -6.15978e-10 -4.06508e-10 -1.03253e-11 7.73091 5.47488 0.417314 -6.15979e-10 -4.06508e-10 -1.03107e-11 2.90554 0.965183 0.102902 -6.15968e-10 -4.06507e-10 -1.03117e-11 10.2786 0.731801 0.0259123 -6.15978e-10 -4.0651e-10 -1.03071e-11 2.22167 -0.733487 -0.20892 2.29663e-13 -6.03987e-13 6.80539e-14 -29.7182 51.823 -38.539 28.4407 -36.2671 -77.4723 0.311699 -15.6537 2.25743 -1.79624e-10 -2.61428e-09 2.87756e-09 -3.43167e-10 -4.53801e-09 4.9691e-09 -1.79624e-10 -2.61428e-09 2.87757e-09 -7.73091 5.47488 -0.417314 -1.79625e-10 -2.61429e-09 2.87756e-09 -2.90554 0.965183 -0.102902 -1.79625e-10 -2.61429e-09 2.87756e-09 -10.2786 0.731801 -0.0259123 -1.79617e-10 -2.61429e-09 2.87755e-09 -2.22167 -0.733487 0.20892 -2.03217e-16 0.0 -3.88251e-19 -13.3422 -38.4363 -10.0037 -0.502284 41.6574 -0.139723 -0.959929 -4.14523 -5.82671 2.03217e-16 0.0 3.88251e-19 5.31116 21.3601 -5.00971 0.422458 43.1343 -0.752139 0.349441 3.72299 -1.98307
156.24 76.5798 -3.91323 534.777 80.1483 530.657 0.0328455 15.9335 -7.41031 5.54403 -1.098 -1.63743 5.73917 -9.13302 2.01102 -3.60574 0.0792452 1.60053 -0.0 0.0 0.0 -0.0 0.0 0.0 2.04332e-13 -7.99485e-14 6.24805e-14 61.4008 22.9075 -26.9561 -20.5059 -13.7128 39.7616 0.0372931 -1.53912 -0.215574 -1.42763e-10 5.89261e-10 -1.28333e-10 -2.4337e-10 1.02179e-09 -2.21444e-10 -1.42765e-10 5.89264e-10 -1.28348e-10 7.73091 5.47488 0.417314 -1.42768e-10 5.89261e-10 -1.28333e-10 2.90554 0.965183 0.102902 -1.42757e-10 5.89264e-10 -1.28336e-10 10.2786 0.731801 0.0259123 -1.42766e-10 5.89262e-10 -1.28333e-10 2.22167 -0.733487 -0.20892 2.04283e-13 -7.99437e-14 6.24153e-14 -32.694 53.9648 -36.011 28.415 -35.0894 -75.7978 0.304267 -15.4724 2.22992 -2.53251e-10 -2.66234e-09 3.27398e-09 -4.75722e-10 -4.62247e-09 5.65356e-09 -2.53254e-10 -2.66235e-09 3.27399e-09 -7.73091 5.47488 -0.417314 -2.53252e-10 -2.66235e-09 3.27397e-09 -2.90554 0.965183 -0.102902 -2.53254e-10 -2.66235e-09 3.27398e-09 -10.2786 0.731801 -0.0259123 -2.53244e-10 -2.66235e-09 3.27397e-09 -2.22167 -0.733487 0.20892 -2.03217e-16 0.0 -3.88251e-19 -9.39714 -36.5974 -7.84762 -0.492366 41.2822 -0.163738 -1.15911 -5.37855 -6.50471 2.03217e-16 0.0 3.88251e-19 7.48072 19.3357 -4.88764 0.519291 46.6794 -0.832289 0.340538 3.63321 -1.60646
157.895 77.1293 -3.40685 545.563 80.3275 541.046 1.99396 16.4283 -7.27726 5.01105 -1.2955 -1.49252 5.73864 -8.9187 1.87611 -3.26762 -0.122788 1.34921 -0.0 0.0 0.0 -0.0 0.0 0.0 1.50086e-13 1.08891e-12 3.30604e-14 60.9852 17.1312 -23.4067 -19.6331 -12.5982 37.6653 0.0190514 1.97358 0.277627 3.34283e-10 1.45695e-09 -1.48478e-10 5.81081e-10 2.52434e-09 -2.58063e-10 3.34282e-10 1.45695e-09 -1.48492e-10 7.73091 5.47488 0.417314 3.34278e-10 1.45694e-09 -1.48476e-10 2.90554 0.965183 0.102902 3.34288e-10 1.45695e-09 -1.48481e-10 10.2786 0.731801 0.0259123 3.34279e-10 1.45695e-09 -1.48479e-10 2.22167 -0.733487 -0.20892 1.50002e-13 1.08891e-12 3.29241e-14 -36.0181 55.8417 -33.2607 28.3376 -33.72 -73.6727 0.299814 -15.3819 2.21599 -3.02307e-10 -2.57253e-09 3.51829e-09 -5.64107e-10 -4.46777e-09 6.0757e-09 -3.02311e-10 -2.57253e-09 3.5183e-09 -7.73091 5.47488 -0.417314 -3.02307e-10 -2.57254e-09 3.51829e-09 -2.90554 0.965183 -0.102902 -3.02311e-10 -2.57254e-09 3.51829e-09 -10.2786 0.731801 -0.0259123 -3.023e-10 -2.57254e-09 3.51828e-09 -2.22167 -0.733487 0.20892 -2.03217e-16 0.0 -3.88251e-19 -5.90107 -34.7115 -5.91094 -0.477782 40.775 -0.183971 -1.39462 -6.58755 -7.23095 2.03217e-16 0.0 3.88251e-19 9.42055 17.0887 -4.73793 0.627823 50.0004 -0.920049 0.321405 3.23858 -1.28515
159.491 77.7579 -3.20833 550.615 80.2854 545.821 3.50263 16.7222 -7.05404 4.58974 -1.47247 -1.34912 5.6448 -8.71917 1.71068 -2.98482 -0.226918 1.07869 -0.0 0.0 0.0 -0.0 0.0 0.0 9.98479e-14 1.55221e-12 1.32192e-14 61.3905 11.3835 -20.4705 -18.9188 -11.7098 36.1155 -0.018021 3.82961 0.539027 6.92566e-10 1.93708e-09 -1.49674e-10 1.20024e-09 3.35563e-09 -2.60956e-10 6.92566e-10 1.93708e-09 -1.49686e-10 7.73091 5.47488 0.417314 6.92561e-10 1.93707e-09 -1.49671e-10 2.90554 0.965183 0.102902 6.92571e-10 1.93708e-09 -1.49676e-10 10.2786 0.731801 0.0259123 6.92562e-10 1.93708e-09 -1.49674e-10 2.22167 -0.733487 -0.20892 9.97384e-14 1.55221e-12 1.30204e-14 -39.6693 57.2948 -30.416 28.2404 -32.3195 -70.9689 0.293599 -15.2398 2.19434 -2.60138e-10 -2.33228e-09 3.4763e-09 -4.91263e-10 -4.0518e-09 6.0042e-09 -2.60143e-10 -2.33228e-09 3.47631e-09 -7.73091 5.47488 -0.417314 -2.60138e-10 -2.33229e-09 3.4763e-09 -2.90554 0.965183 -0.102902 -2.60144e-10 -2.33229e-09 3.47631e-09 -10.2786 0.731801 -0.0259123 -2.60131e-10 -2.33229e-09 3.4763e-09 -2.22167 -0.733487 0.20892 -2.03217e-16 0.0 -3.88251e-19 -3.25219 -32.9071 -4.47678 -0.459143 40.1506 -0.202698 -1.60503 -7.67311 -7.75636 2.03217e-16 0.0 3.88251e-19 10.8033 14.6066 -4.53383 0.744819 52.9939 -1.01411 0.298678 2.89405 -1.12892
161.065 78.3822 -3.41692 548.138 79.988 543.379 4.39978 16.7527 -6.72292 4.32001 -1.61309 -1.21124 5.42357 -8.54095 1.50488 -2.74647 -0.230038 0.783053 -0.0 0.0 0.0 -0.0 0.0 0.0 4.61996e-14 7.95967e-13 1.16627e-14 62.4126 5.39134 -17.9404 -18.4731 -11.1731 35.1923 -0.0442281 3.76032 0.525096 9.63728e-10 1.79101e-09 -1.06239e-10 1.6684e-09 3.10123e-09 -1.84017e-10 9.6373e-10 1.79101e-09 -1.06251e-10 7.73091 5.47488 0.417314 9.63724e-10 1.791e-09 -1.06236e-10 2.90554 0.965183 0.102902 9.63733e-10 1.79101e-09 -1.06239e-10 10.2786 0.731801 0.0259123 9.63725e-10 1.79101e-09 -1.06235e-10 2.22167 -0.733487 -0.20892 4.60706e-14 7.95968e-13 1.14049e-14 -43.5183 58.2995 -27.6487 28.0513 -30.5351 -67.4985 0.282845 -14.9681 2.15332 -3.95079e-11 -1.83266e-09 2.96481e-09 -1.04291e-10 -3.18567e-09 5.12347e-09 -3.95118e-11 -1.83266e-09 2.96482e-09 -7.73091 5.47488 -0.417314 -3.95075e-11 -1.83266e-09 2.96481e-09 -2.90554 0.965183 -0.102902 -3.95149e-11 -1.83266e-09 2.96481e-09 -10.2786 0.731801 -0.0259123 -3.95014e-11 -1.83266e-09 2.9648e-09 -2.22167 -0.733487 0.20892 -2.03217e-16 0.0 -3.88251e-19 -1.5873 -31.2778 -3.60158 -0.436418 39.4096 -0.221528 -1.76388 -8.62036 -8.04561 2.03217e-16 0.0 3.88251e-19 11.4622 11.7849 -4.26672 0.871517 55.6707 -1.11434 0.265421 2.62158 -1.19604
162.433 79.0375 -3.17195 552.227 79.9664 547.622 4.84976 16.5712 -6.32885 4.1414 -1.72672 -1.07972 5.11131 -8.36546 1.2637 -2.52784 -0.162175 0.458137 -0.0 0.0 0.0 -0.0 0.0 0.0 -2.30112e-14 -4.08324e-13 1.06381e-14 63.9896 -0.898664 -15.6727 -18.2481 -10.9242 34.6804 -0.0603899 2.39531 0.326154 1.19171e-09 1.21361e-09 8.34637e-12 2.06118e-09 2.09908e-09 1.73151e-11 1.19171e-09 1.21361e-09 8.33525e-12 7.73091 5.47488 0.417314 1.19171e-09 1.2136e-09 8.34855e-12 2.90554 0.965183 0.102902 1.19172e-09 1.21361e-09 8.34832e-12 10.2786 0.731801 0.0259123 1.19171e-09 1.21361e-09 8.35552e-12 2.22167 -0.733487 -0.20892 -2.3158e-14 -4.08322e-13 1.03151e-14 -47.4789 58.9258 -24.9494 27.5654 -28.1013 -63.5784 0.270842 -14.6561 2.10636 3.0088e-10 -1.11555e-09 2.10452e-09 4.93815e-10 -1.94217e-09 3.64153e-09 3.00879e-10 -1.11555e-09 2.10453e-09 -7.73091 5.47488 -0.417314 3.00881e-10 -1.11555e-09 2.10453e-09 -2.90554 0.965183 -0.102902 3.00872e-10 -1.11555e-09 2.10453e-09 -10.2786 0.731801 -0.0259123 3.00887e-10 -1.11555e-09 2.10452e-09 -2.22167 -0.733487 0.20892 -2.03217e-16 0.0 -3.88251e-19 -0.597468 -29.761 -3.08693 -0.409507 38.5453 -0.238846 -1.89299 -9.48037 -8.21902 2.03217e-16 0.0 3.88251e-19 11.6168 8.66267 -3.95874 1.00728 58.0731 -1.22004 0.218039 2.25621 -1.41822
